<svg version="1.1" width="86" height="89" viewBox="-1 -1 86 89" xmlns="http://www.w3.org/2000/svg" xmlns:xlink="http://www.w3.org/1999/xlink">
  <!-- Exported by Scratch - http://scratch.mit.edu/ -->
  <g id="ID0.294811321888119" transform="matrix(1.0499999523162842, 0, 0, 1.0499999523162842, -0.05, -0.15)">
    <path id="ID0.3072393317706883" fill="#F9A41E" d="M 57.300 29.600 C 57.300 29.600 70.100 22.900 73.400 15.600 C 76.800 8.200 68.400 3.800 66.300 9.300 C 65 12.700 60 21.300 55.600 24.600 C 51.200 27.900 54.200 31.500 57.300 29.600 Z " transform="matrix(1.1024999618530273, 0, 0, 1.1024999618530273, 0.05, 1)"/>
    <path id="ID0.33640219923108816" fill="#F9A41E" d="M 6.800 61.600 C 13.700 52.300 22.600 47.600 22.600 47.600 L 38.200 55.100 C 38.200 55.100 30.800 66.800 27.500 68.200 C 27.500 68.200 19.100 67.300 15.600 65.400 " transform="matrix(1.1024999618530273, 0, 0, 1.1024999618530273, 0.05, 1)"/>
    <path id="ID0.8955257972702384" fill="#F9A41E" d="M 6.800 61.600 C 6.800 61.600 2.100 66.900 0.600 71.400 C -1.300 77.400 6.800 81.100 10.300 74.400 C 12.100 70.900 14 67 16.400 64.400 " transform="matrix(1.1024999618530273, 0, 0, 1.1024999618530273, 0.05, 1)"/>
    <path id="ID0.2634306978434324" fill="none" stroke="#231F20" stroke-width="0.7" stroke-linecap="round" stroke-linejoin="round" d="M 6.800 61.600 C 14.700 52.300 22.600 47.600 22.600 47.600 L 38.200 55.100 C 38.200 55.100 30.800 66.800 27.500 68.200 C 27.500 68.200 19.100 67.300 15.600 65.400 " transform="matrix(1.1024999618530273, 0, 0, 1.1024999618530273, 0.05, 1)"/>
    <path id="ID0.3834887407720089" fill="#FFFFFF" d="M 25.400 50.200 C 22.300 51.600 16.500 56.700 18.100 60.300 C 19.700 63.900 29.400 65.800 33.800 56.700 C 37 50.200 28.600 48.800 25.400 50.200 Z " transform="matrix(1.1024999618530273, 0, 0, 1.1024999618530273, 0.05, 1)"/>
    <path id="ID0.0825743293389678" fill="none" stroke="#231F20" stroke-width="0.7" stroke-linecap="round" stroke-linejoin="round" d="M 6.800 61.600 C 6.800 61.600 2.100 66.900 0.600 71.400 C -1.300 77.400 6.800 81.100 10.300 74.400 C 12.100 70.900 14 67 16.400 64.400 " transform="matrix(1.1024999618530273, 0, 0, 1.1024999618530273, 0.05, 1)"/>
    <path id="ID0.4248275365680456" fill="#F9A41E" d="M 31.900 71.100 C 30 75.800 25.900 78.200 22.600 76.900 C 19.800 75.800 19.200 71.700 21.200 68.200 C 23.400 64.300 27.200 62 30.100 62.900 C 32.900 63.800 33.500 67.100 31.900 71.100 Z " transform="matrix(1.1024999618530273, 0, 0, 1.1024999618530273, 0.05, 1)"/>
    <path id="ID0.4170016339048743" fill="none" stroke="#231F20" stroke-width="0.7" stroke-linecap="round" stroke-linejoin="round" d="M 31.900 71.100 C 30 75.800 25.900 78.200 22.600 76.900 C 19.800 75.800 19.200 71.700 21.200 68.200 C 23.400 64.300 27.200 62 30.100 62.900 C 32.900 63.800 33.500 67.100 31.900 71.100 Z " transform="matrix(1.1024999618530273, 0, 0, 1.1024999618530273, 0.05, 1)"/>
    <path id="ID0.4534302558749914" fill="#F9A41E" d="M 14.800 44.700 C 14.800 44.700 5.600 43.100 2 49.600 C -2.100 56.900 6.600 59 9 53.900 C 11.800 48.200 18.200 49 18.200 49 L 14.800 44.700 Z " transform="matrix(1.1024999618530273, 0, 0, 1.1024999618530273, 0.05, 1)"/>
    <path id="ID0.8974373424425721" fill="none" stroke="#231F20" stroke-width="0.7" stroke-linecap="round" stroke-linejoin="round" d="M 57.300 29.600 C 57.300 29.600 70.100 22.900 73.400 15.600 C 76.800 8.200 68.400 3.800 66.300 9.300 C 65 12.700 60 21.300 55.600 24.600 C 51.200 27.900 54.200 31.500 57.300 29.600 Z " transform="matrix(1.1024999618530273, 0, 0, 1.1024999618530273, 0.05, 1)"/>
    <path id="ID0.1449340949766338" fill="none" stroke="#231F20" stroke-width="0.7" stroke-linecap="round" stroke-linejoin="round" d="M 14.800 44.700 C 14.800 44.700 5.200 43.100 2 49.600 C -1.700 57.100 6.600 59 9 53.900 C 11.800 48.200 18.200 49 18.200 49 L 14.800 44.700 Z " transform="matrix(1.1024999618530273, 0, 0, 1.1024999618530273, 0.05, 1)"/>
    <path id="ID0.8441412895917892" fill="#F9A41E" d="M 34.900 7.800 C 30.500 8 26.700 10 26.700 10 L 14 1.100 L 15.700 19.100 C 15.700 19.100 10.600 22.900 10 33.500 C 9.400 45.400 20.800 55 35.800 56.300 C 55.600 58.100 71 49.500 69.600 36.500 C 68.800 29.700 63.600 29 63.600 29 C 63.600 29 64.100 24.500 61.100 19.100 C 58.100 13.600 53.400 11.300 53.400 11.300 L 50.900 0.300 L 43 8.200 C 43 8.200 39.300 7.700 34.900 7.800 Z " transform="matrix(1.1024999618530273, 0, 0, 1.1024999618530273, 0.05, 1)"/>
    <path id="ID0.7266229740343988" fill="#FFFFFF" d="M 46.900 33.500 C 40 34.800 22.600 27.400 19.600 38.800 C 16.300 51.200 26.400 55.500 35.700 56.300 C 64 58.900 71 43.800 69.500 36.500 C 68.400 31.100 66.600 29.600 63.500 29 C 56.500 27.700 53.900 32.200 46.900 33.500 Z " transform="matrix(1.1024999618530273, 0, 0, 1.1024999618530273, 0.05, 1)"/>
    <path id="ID0.1148456297814846" fill="none" stroke="#231F20" stroke-width="0.7" stroke-linecap="round" stroke-linejoin="round" d="M 1.400 37.700 C 1.400 37.700 5.300 38.100 7.100 38.100 C 8.900 38 12.300 37.700 12.300 37.700 " transform="matrix(1.1024999618530273, 0, 0, 1.1024999618530273, 0.05, 1)"/>
    <path id="ID0.3569164266809821" fill="none" stroke="#231F20" stroke-width="0.7" stroke-linecap="round" stroke-linejoin="round" d="M 12.500 34 C 12.500 34 10.300 32.300 6.800 30.600 C 2.900 28.800 0.800 28.300 0.800 28.300 " transform="matrix(1.1024999618530273, 0, 0, 1.1024999618530273, 0.05, 1)"/>
    <path id="ID0.399786364287138" fill="#FFFFFF" stroke="#231F20" stroke-width="0.7" stroke-linecap="round" stroke-linejoin="round" d="M 59 19.200 C 61.700 23.500 61.700 28.300 59 30 C 56.300 31.700 52 29.500 49.300 25.200 C 46.600 20.900 46.600 16.100 49.300 14.400 C 51.900 12.800 56.300 14.900 59 19.200 Z " transform="matrix(1.1024999618530273, 0, 0, 1.1024999618530273, 0.05, 1)"/>
    <path id="ID0.012973028235137463" fill="#231F20" d="M 56.900 19.800 C 57.200 20.800 56.600 21.800 55.700 22 C 54.800 22.200 53.800 21.600 53.600 20.600 C 53.300 19.600 53.900 18.600 54.800 18.400 C 55.700 18.200 56.600 18.800 56.900 19.800 " transform="matrix(1.1024999618530273, 0, 0, 1.1024999618530273, 0.8, 4)"/>
    <path id="ID0.4833636190742254" fill="#FFFFFF" stroke="#231F20" stroke-width="0.7" stroke-linecap="round" stroke-linejoin="round" d="M 36.200 21.800 C 38.900 26.100 38.500 31.200 35.300 33.200 C 32.100 35.200 27.400 33.300 24.700 29 C 22 24.700 22.400 19.600 25.600 17.600 C 28.800 15.600 33.500 17.500 36.200 21.800 Z " transform="matrix(1.1024999618530273, 0, 0, 1.1024999618530273, 0.05, 1)"/>
    <path id="ID0.2379798092879355" fill="#231F20" d="M 33.900 22.600 C 33.900 23.600 33.100 24.400 32.200 24.400 C 31.300 24.400 30.500 23.500 30.500 22.500 C 30.500 21.500 31.300 20.700 32.200 20.700 C 33.200 20.800 33.900 21.600 33.900 22.600 " transform="matrix(1.1024999618530273, 0, 0, 1.1024999618530273, 0.75, 4)"/>
    <path id="ID0.00844710785895586" fill="#231F20" stroke="#231F20" stroke-width="0.7" stroke-linecap="round" stroke-linejoin="round" d="M 46.200 31.300 C 47.800 31.100 50.600 30.300 50.900 32.200 C 50.900 33 49.300 36.200 47.400 36.300 C 45.500 36.400 42.100 34.200 42.300 32.700 C 42.500 31.200 44.800 31.500 46.200 31.300 Z " transform="matrix(1.1024999618530273, 0, 0, 1.1024999618530273, 0.05, 1)"/>
    <path id="ID0.7077047214843333" fill="none" stroke="#231F20" stroke-width="0.7" stroke-linecap="round" stroke-linejoin="round" d="M 52.700 39.100 C 52.800 41 40.500 42.400 40.600 40 " transform="matrix(1.1024999618530273, 0, 0, 1.1024999618530273, 0.05, 1)"/>
    <path id="ID0.41016054805368185" fill="#231F20" stroke="#231F20" stroke-width="0.7" stroke-linecap="round" stroke-linejoin="round" opacity="0.1" d="M 18.800 50.300 C 18.200 50.800 17.500 51.300 16.700 51.900 " transform="matrix(1.1024999618530273, 0, 0, 1.1024999618530273, 0.05, 1)"/>
    <path id="ID0.8669978589750826" fill="#231F20" stroke="#231F20" stroke-width="0.7" stroke-linecap="round" stroke-linejoin="round" opacity="0.1" d="M 37.300 56.500 C 37 57 36.500 57.700 36 58.400 " transform="matrix(1.1024999618530273, 0, 0, 1.1024999618530273, 0.05, 1)"/>
    <path id="ID0.8964151539839804" fill="none" stroke="#231F20" stroke-width="0.7" stroke-linecap="round" stroke-linejoin="round" d="M 64.900 33.800 C 64.900 33.800 69.200 33.200 71.400 32.500 C 74 31.700 75.800 30.200 75.800 30.200 " transform="matrix(1.1024999618530273, 0, 0, 1.1024999618530273, 0.05, 1)"/>
    <path id="ID0.0632392056286335" fill="none" stroke="#231F20" stroke-width="0.7" stroke-linecap="round" stroke-linejoin="round" d="M 65.200 39.400 C 65.200 39.400 67.800 40.500 70.400 40.800 C 73 41.100 74.800 41 74.800 41 " transform="matrix(1.1024999618530273, 0, 0, 1.1024999618530273, 0.05, 1)"/>
    <g id="ID0.9532997533679008">
      <path id="ID0.07941257441416383" fill="none" stroke="#231F20" stroke-width="0.7" stroke-linecap="round" stroke-linejoin="round" d="M 25.100 8.900 L 28.700 11.500 " transform="matrix(1.1024999618530273, 0, 0, 1.1024999618530273, 0.05, 1)"/>
      <path id="ID0.3073604479432106" fill="none" stroke="#231F20" stroke-width="0.7" stroke-linecap="round" stroke-linejoin="round" d="M 34.900 7.800 C 30.500 8 26.700 10 26.700 10 L 14 1.100 L 15.700 19.100 C 15.700 19.100 10.600 22.900 10 33.500 C 9.400 45.400 20.800 55 35.800 56.300 C 55.600 58.100 71 49.500 69.600 36.500 C 68.800 29.700 63.600 29 63.600 29 C 63.600 29 64.100 24.500 61.100 19.100 C 58.100 13.600 53.400 11.300 53.400 11.300 L 50.900 0.300 L 43 8.200 C 43 8.200 39.300 7.700 34.900 7.800 Z " transform="matrix(1.1024999618530273, 0, 0, 1.1024999618530273, 0.05, 1)"/>
    </g>
  </g>
</svg>