<svg version="1.1" width="49" height="40" viewBox="3 7 49 40" xmlns="http://www.w3.org/2000/svg" xmlns:xlink="http://www.w3.org/1999/xlink">
  <!-- Exported by Scratch - http://scratch.mit.edu/ -->
  <g id="ID0.8994004195556045" transform="matrix(0.9747171998023987, -0.22344207763671875, 0.22344207763671875, 0.9747171998023987, -5.8, 8.65)">
    <path id="ID0.057606966234743595" fill="#FFEBAE" stroke="#231F20" stroke-width="0.7" d="M 40.500 24.800 L 40.300 24.800 C 38 24.800 36.100 22.800 35.600 20 C 34.200 12.200 29.500 6 23.400 3.800 C 25 3.200 26.700 2.900 28.500 2.900 C 36 2.800 42.400 8.600 45 16.700 C 46.200 20.500 43.900 24.800 40.500 24.800 Z " transform="matrix(0.8988295197486877, -0.5427757501602173, 0.5427757501602173, 0.8988295197486877, -1.4, 25.65)"/>
    <path id="ID0.7190649919211864" fill="#37B34A" stroke="#231F20" stroke-width="0.7" stroke-linecap="round" stroke-linejoin="round" d="M 41.500 17.500 C 41.500 17.500 47.300 15.300 45.400 12.600 C 44 10.800 42 11.600 41.300 10.800 C 40.600 10 40.800 5 38.400 4.900 C 36 4.800 35.200 6.200 33.400 5.400 C 31.700 4.600 32.200 1.100 29.600 1.800 C 27 2.600 27.100 3.600 25.500 3.300 C 23.900 3 22.500 0 20.500 0.600 C 18.500 1.200 18 2.700 16.400 3 C 14.800 3.300 13.100 1.700 11 2.400 C 8.900 3.100 9.900 5.500 8.300 6 C 6.700 6.500 5.100 5.500 4.300 8.200 C 3.500 10.900 4.300 11.200 3.600 12.600 C 2.900 14 34.600 17.300 41.500 17.500 Z " transform="matrix(0.8988295197486877, -0.5427757501602173, 0.5427757501602173, 0.8988295197486877, -1.4, 25.65)"/>
    <path id="ID0.4578696140088141" fill="#BE1E2D" stroke="#231F20" stroke-width="0.7" stroke-linecap="round" stroke-linejoin="round" d="M 42 17.700 L 40.300 16.700 C 39.900 16.500 39.800 16 40 15.700 L 41 14 C 41.200 13.600 41.700 13.500 42 13.700 L 43.700 14.700 C 44.100 14.900 44.200 15.400 44 15.700 L 43 17.400 C 42.800 17.800 42.300 17.900 42 17.700 Z " transform="matrix(0.8988295197486877, -0.5427757501602173, 0.5427757501602173, 0.8988295197486877, -1.4, 25.65)"/>
    <path id="ID0.5839886558242142" fill="none" stroke="#FFF100" stroke-width="0.7" stroke-linecap="round" stroke-linejoin="round" d="M 35 12.500 L 34.400 10.300 " transform="matrix(0.8988295197486877, -0.5427757501602173, 0.5427757501602173, 0.8988295197486877, -1.4, 25.65)"/>
    <path id="ID0.02774072764441371" fill="#BE1E2D" stroke="#231F20" stroke-width="0.7" stroke-linecap="round" stroke-linejoin="round" d="M 1.800 16.100 L 0.500 13.800 C 0.300 13.400 0.400 12.900 0.800 12.700 L 3.100 11.400 C 3.500 11 4 11.200 4.200 11.600 L 5.500 13.900 C 5.700 14.300 5.600 14.800 5.200 15 L 2.900 16.300 C 2.500 16.600 2 16.400 1.800 16.100 Z " transform="matrix(0.8988295197486877, -0.5427757501602173, 0.5427757501602173, 0.8988295197486877, -1.4, 25.65)"/>
    <path id="ID0.7684330162592232" fill="none" stroke="#FFF100" stroke-width="0.7" stroke-linecap="round" stroke-linejoin="round" d="M 37.700 12.700 L 34.100 14.400 " transform="matrix(0.8988295197486877, -0.5427757501602173, 0.5427757501602173, 0.8988295197486877, -1.4, 25.65)"/>
    <path id="ID0.5601330734789371" fill="none" stroke="#FFF100" stroke-width="0.7" stroke-linecap="round" stroke-linejoin="round" d="M 42.700 9.600 L 38.600 10 " transform="matrix(0.8988295197486877, -0.5427757501602173, 0.5427757501602173, 0.8988295197486877, -1.4, 25.65)"/>
    <path id="ID0.9945484842173755" fill="#8A5D3B" stroke="#231F20" stroke-width="0.7" stroke-linecap="round" stroke-linejoin="round" d="M 40.500 16.800 C 40.700 16.700 41 16.700 41.300 16.700 C 41.900 16.800 42.300 17.100 42.600 17.600 C 42.900 17.300 43.400 17.100 43.900 17.200 C 44.800 17.300 45.500 18.100 45.400 19 C 45.400 19.500 45.100 19.900 44.800 20.100 C 45.200 20.400 45.400 21 45.300 21.500 C 45.200 22.400 44.400 23.100 43.500 23 C 43.400 23 43.400 23 43.300 23 C 43.100 23.800 42.300 24.300 41.500 24.200 C 41.300 24.200 41.100 24.100 40.900 24 C 40.600 24.400 40 24.600 39.400 24.600 C 39 24.600 38.700 24.400 38.400 24.200 C 38.100 24.500 37.600 24.600 37.200 24.600 C 36.300 24.500 35.600 23.700 35.700 22.800 C 35.800 22.100 36.200 21.600 36.800 21.400 C 36.800 21.300 36.800 21.200 36.800 21 C 36 20.800 35.500 20 35.600 19.200 C 35.700 18.300 36.400 17.700 37.300 17.700 C 37.200 17.500 37.200 17.200 37.200 17 C 37.300 16.100 38.100 15.400 39 15.500 C 39.700 15.500 40.300 16.100 40.500 16.800 Z " transform="matrix(0.8988295197486877, -0.5427757501602173, 0.5427757501602173, 0.8988295197486877, -1.4, 25.65)"/>
    <path id="ID0.4777958798222244" fill="#BE1E2D" stroke="#231F20" stroke-width="0.7" stroke-linecap="round" stroke-linejoin="round" d="M 37.200 16.100 L 34.900 17.400 C 34.500 17.600 34 17.500 33.800 17.100 L 32.500 14.800 C 32.300 14.400 32.400 13.900 32.800 13.700 L 35.100 12.400 C 35.500 12.200 36 12.300 36.200 12.700 L 37.500 15 C 37.800 15.400 37.600 15.900 37.200 16.100 Z " transform="matrix(0.8988295197486877, -0.5427757501602173, 0.5427757501602173, 0.8988295197486877, -1.4, 25.65)"/>
    <path id="ID0.2671538251452148" fill="#BE1E2D" stroke="#231F20" stroke-width="0.7" stroke-linecap="round" stroke-linejoin="round" d="M 30.400 10 L 27.700 10.200 C 27.300 10.200 26.900 9.900 26.800 9.400 L 26.600 6.700 C 26.600 6.300 26.900 5.900 27.400 5.800 L 30.100 5.600 C 30.600 5.600 31 6 31 6.400 L 31.200 9.100 C 31.200 9.500 30.800 9.900 30.400 10 Z " transform="matrix(0.8988295197486877, -0.5427757501602173, 0.5427757501602173, 0.8988295197486877, -1.4, 25.65)"/>
    <path id="ID0.18255251785740256" fill="#BE1E2D" stroke="#231F20" stroke-width="0.7" stroke-linecap="round" stroke-linejoin="round" d="M 16 5.600 L 13.800 4 C 13.400 3.700 13.300 3.200 13.600 2.900 L 15.200 0.700 C 15.500 0.300 16 0.200 16.300 0.500 L 18.500 2.100 C 18.900 2.400 19 2.900 18.700 3.200 L 17.100 5.400 C 16.900 5.800 16.400 5.800 16 5.600 Z " transform="matrix(0.8988295197486877, -0.5427757501602173, 0.5427757501602173, 0.8988295197486877, -1.4, 25.65)"/>
    <path id="ID0.25294707622379065" fill="none" stroke="#FFF100" stroke-width="0.7" stroke-linecap="round" stroke-linejoin="round" d="M 31.200 10.400 L 33.700 7.300 " transform="matrix(0.8988295197486877, -0.5427757501602173, 0.5427757501602173, 0.8988295197486877, -1.4, 25.65)"/>
    <path id="ID0.6144645470194519" fill="none" stroke="#FFF100" stroke-width="0.7" stroke-linecap="round" stroke-linejoin="round" d="M 20.100 4.200 L 22.500 1.100 " transform="matrix(0.8988295197486877, -0.5427757501602173, 0.5427757501602173, 0.8988295197486877, -1.4, 25.65)"/>
    <path id="ID0.5086760767735541" fill="#FFEBAE" d="M 40.300 24.800 L 6.300 24.800 C 2.900 24.800 0.600 20.600 1.800 16.700 C 4.400 8.600 10.800 2.900 18.200 2.900 C 19.900 2.900 21.700 3.200 23.500 3.800 C 23.400 3.800 23.400 3.800 23.300 3.900 C 29.500 6 34.200 12.200 35.600 20 C 36.100 22.700 38 24.800 40.300 24.800 Z " transform="matrix(0.8988295197486877, -0.5427757501602173, 0.5427757501602173, 0.8988295197486877, -1.4, 25.65)"/>
    <path id="ID0.8902985318563879" fill="none" stroke="#FFFFFF" stroke-width="0.7" stroke-linecap="round" stroke-linejoin="round" d="M 4.900 14.200 C 7.100 10 10.300 6.800 14.100 5.400 " transform="matrix(0.8988295197486877, -0.5427757501602173, 0.5427757501602173, 0.8988295197486877, -1.4, 25.65)"/>
    <path id="ID0.7039394131861627" fill="#CEBD8E" stroke="#CEBD8E" stroke-width="0.7" stroke-linecap="round" stroke-linejoin="round" d="M 38.400 24.800 L 6.400 24.800 C 3.300 24.800 1 21.200 1.700 17.500 C 2.200 20 4 22.100 6.300 22.100 L 36.100 22.100 C 36.200 22.900 38.400 23.800 38.400 24.800 Z " transform="matrix(0.8988295197486877, -0.5427757501602173, 0.5427757501602173, 0.8988295197486877, -1.4, 25.65)"/>
    <path id="ID0.01227404735982418" fill="#CEBD8E" d="M 22.200 14.200 C 22.448 14.200 22.673 14.301 22.836 14.464 C 22.999 14.627 23.100 14.852 23.100 15.100 C 23.100 15.348 22.999 15.573 22.836 15.736 C 22.673 15.899 22.448 16 22.200 16 C 21.952 16 21.727 15.899 21.564 15.736 C 21.401 15.573 21.300 15.348 21.300 15.100 C 21.300 14.852 21.401 14.627 21.564 14.464 C 21.727 14.301 21.952 14.200 22.200 14.200 Z " transform="matrix(0.8988295197486877, -0.5427757501602173, 0.5427757501602173, 0.8988295197486877, -1.4, 25.65)"/>
    <path id="ID0.0999275604262948" fill="#CEBD8E" d="M 10.100 10.800 C 10.348 10.800 10.573 10.901 10.736 11.064 C 10.899 11.227 11 11.452 11 11.700 C 11 11.948 10.899 12.173 10.736 12.336 C 10.573 12.499 10.348 12.600 10.100 12.600 C 9.852 12.600 9.627 12.499 9.464 12.336 C 9.301 12.173 9.200 11.948 9.200 11.700 C 9.200 11.452 9.301 11.227 9.464 11.064 C 9.627 10.901 9.852 10.800 10.100 10.800 Z " transform="matrix(0.8988295197486877, -0.5427757501602173, 0.5427757501602173, 0.8988295197486877, -1.4, 25.65)"/>
    <path id="ID0.964715160895139" fill="#CEBD8E" d="M 13.900 15.700 C 14.148 15.700 14.373 15.801 14.536 15.964 C 14.699 16.127 14.800 16.352 14.800 16.600 C 14.800 16.848 14.699 17.073 14.536 17.236 C 14.373 17.399 14.148 17.500 13.900 17.500 C 13.652 17.500 13.427 17.399 13.264 17.236 C 13.101 17.073 13 16.848 13 16.600 C 13 16.352 13.101 16.127 13.264 15.964 C 13.427 15.801 13.652 15.700 13.900 15.700 Z " transform="matrix(0.8988295197486877, -0.5427757501602173, 0.5427757501602173, 0.8988295197486877, -1.4, 25.65)"/>
    <path id="ID0.724121424369514" fill="#CEBD8E" d="M 6.600 16.600 C 6.848 16.600 7.073 16.701 7.236 16.864 C 7.399 17.027 7.500 17.252 7.500 17.500 C 7.500 17.748 7.399 17.973 7.236 18.136 C 7.073 18.299 6.848 18.400 6.600 18.400 C 6.352 18.400 6.127 18.299 5.964 18.136 C 5.801 17.973 5.700 17.748 5.700 17.500 C 5.700 17.252 5.801 17.027 5.964 16.864 C 6.127 16.701 6.352 16.600 6.600 16.600 Z " transform="matrix(0.8988295197486877, -0.5427757501602173, 0.5427757501602173, 0.8988295197486877, -1.4, 25.65)"/>
    <path id="ID0.7247620830312371" fill="#CEBD8E" d="M 24.600 9.100 C 24.848 9.100 25.073 9.201 25.236 9.364 C 25.399 9.527 25.500 9.752 25.500 10 C 25.500 10.248 25.399 10.473 25.236 10.636 C 25.073 10.799 24.848 10.900 24.600 10.900 C 24.352 10.900 24.127 10.799 23.964 10.636 C 23.801 10.473 23.700 10.248 23.700 10 C 23.700 9.752 23.801 9.527 23.964 9.364 C 24.127 9.201 24.352 9.100 24.600 9.100 Z " transform="matrix(0.8988295197486877, -0.5427757501602173, 0.5427757501602173, 0.8988295197486877, -1.4, 25.65)"/>
    <path id="ID0.24672124907374382" fill="#CEBD8E" d="M 28.900 16.100 C 29.148 16.100 29.373 16.201 29.536 16.364 C 29.699 16.527 29.800 16.752 29.800 17 C 29.800 17.248 29.699 17.473 29.536 17.636 C 29.373 17.799 29.148 17.900 28.900 17.900 C 28.652 17.900 28.427 17.799 28.264 17.636 C 28.101 17.473 28 17.248 28 17 C 28 16.752 28.101 16.527 28.264 16.364 C 28.427 16.201 28.652 16.100 28.900 16.100 Z " transform="matrix(0.8988295197486877, -0.5427757501602173, 0.5427757501602173, 0.8988295197486877, -1.4, 25.65)"/>
    <path id="ID0.03566143894568086" fill="#CEBD8E" d="M 17.300 7.300 C 17.548 7.300 17.773 7.401 17.936 7.564 C 18.099 7.727 18.200 7.952 18.200 8.200 C 18.200 8.448 18.099 8.673 17.936 8.836 C 17.773 8.999 17.548 9.100 17.300 9.100 C 17.052 9.100 16.827 8.999 16.664 8.836 C 16.501 8.673 16.400 8.448 16.400 8.200 C 16.400 7.952 16.501 7.727 16.664 7.564 C 16.827 7.401 17.052 7.300 17.300 7.300 Z " transform="matrix(0.8988295197486877, -0.5427757501602173, 0.5427757501602173, 0.8988295197486877, -1.4, 25.65)"/>
    <path id="ID0.5271042105741799" fill="none" stroke="#FFF100" stroke-width="0.7" stroke-linecap="round" stroke-linejoin="round" d="M 38.400 6.600 L 36.100 7.900 " transform="matrix(0.8988295197486877, -0.5427757501602173, 0.5427757501602173, 0.8988295197486877, -1.4, 25.65)"/>
    <path id="ID0.6404581507667899" fill="none" stroke="#FFF100" stroke-width="0.7" stroke-linecap="round" stroke-linejoin="round" d="M 30.600 4.100 L 28 4.400 " transform="matrix(0.8988295197486877, -0.5427757501602173, 0.5427757501602173, 0.8988295197486877, -1.4, 25.65)"/>
    <path id="ID0.6748156403191388" fill="none" stroke="#231F20" stroke-width="0.7" stroke-linecap="round" stroke-linejoin="round" d="M 40.300 24.800 L 6.300 24.800 C 2.900 24.800 0.600 20.600 1.800 16.700 C 4.400 8.600 10.800 2.900 18.200 2.900 C 19.900 2.900 21.700 3.200 23.500 3.800 C 23.400 3.800 23.400 3.800 23.300 3.900 C 29.500 6 34.200 12.200 35.600 20 C 36.100 22.700 38 24.800 40.300 24.800 Z " transform="matrix(0.8988295197486877, -0.5427757501602173, 0.5427757501602173, 0.8988295197486877, -1.4, 25.65)"/>
  </g>
</svg>